<svg width="215" height="159" viewBox="0 0 215 159" fill="none" xmlns="http://www.w3.org/2000/svg">
<path d="M19.1282 87.7473C17.1283 89.1601 14.8286 86.431 16.5601 84.6996L99.8455 1.41416C100.627 0.633114 101.893 0.633115 102.674 1.41416L115.585 14.3253C116.366 15.1064 116.366 16.3727 115.585 17.1538L24.5695 108.169C22.9619 109.777 20.345 107.883 21.3701 105.853L33.2134 82.4089C34.1532 80.5487 31.9766 78.6711 30.2744 79.8736L19.1282 87.7473Z" fill="#222222"/>
<path d="M125.041 86.0408C125.82 85.2582 127.087 85.2555 127.869 86.0349L176.483 134.444C178.015 135.97 176.371 138.505 174.353 137.728L155.434 130.442C153.712 129.779 152.087 131.603 152.944 133.237L160.042 146.771C161.105 148.798 158.481 150.732 156.86 149.117L110.762 103.214C109.98 102.434 109.977 101.168 110.757 100.385L125.041 86.0408Z" fill="#222222"/>
<path d="M27.5756 127.191C25.6229 125.238 25.623 122.072 27.5756 120.119L101.58 46.1154L126.456 70.9918L52.452 144.996C50.4994 146.949 47.3335 146.949 45.3809 144.996L27.5756 127.191Z" fill="#222222"/>
<path d="M122.557 24.9365C124.505 22.9798 127.671 22.9731 129.628 24.9216L210.509 105.463C212.466 107.412 212.472 110.578 210.524 112.534L192.756 130.377C190.808 132.334 187.642 132.34 185.685 130.392L101.261 46.3222L122.557 24.9365Z" fill="#222222"/>
</svg>
